<?xml version="1.0" encoding="utf-8"?>
<!-- Generator: Adobe Illustrator 19.0.0, SVG Export Plug-In . SVG Version: 6.00 Build 0)  -->
<svg version="1.1" id="Layer_1" xmlns="http://www.w3.org/2000/svg" xmlns:xlink="http://www.w3.org/1999/xlink" x="0px" y="0px"
	 viewBox="39 -13.9 97.1 46.9" style="enable-background:new 39 -13.9 97.1 46.9;" xml:space="preserve">
<style type="text/css">
	.st0{enable-background:new    ;}
	.st1{fill:#FFFFFF;}
	.st2{fill:none;stroke:#FFFFFF;stroke-width:0.25;}
	.st3{fill:none;stroke:#FFFFFF;stroke-width:0.1;}
</style>
<g class="st0">
	<path class="st1" d="M101.8,22.6h-0.5v-5.1l-1.5,0.6v-0.4l1.9-0.7h0.1V22.6z"/>
	<path class="st1" d="M104.1,22.3c0-0.1,0-0.2,0.1-0.2s0.1-0.1,0.2-0.1c0.1,0,0.2,0,0.2,0.1c0.1,0.1,0.1,0.1,0.1,0.2s0,0.2-0.1,0.2
		c-0.1,0.1-0.1,0.1-0.2,0.1c-0.1,0-0.2,0-0.2-0.1S104.1,22.4,104.1,22.3z"/>
	<path class="st1" d="M109.4,20.3c0,0.8-0.1,1.4-0.4,1.8c-0.3,0.4-0.7,0.6-1.3,0.6c-0.6,0-1-0.2-1.3-0.6c-0.3-0.4-0.5-1-0.5-1.8v-1
		c0-0.8,0.1-1.4,0.4-1.8s0.7-0.6,1.3-0.6c0.6,0,1,0.2,1.3,0.6s0.5,1,0.5,1.8V20.3z M109,19.2c0-0.7-0.1-1.1-0.3-1.5
		c-0.2-0.3-0.5-0.5-1-0.5c-0.4,0-0.7,0.2-1,0.5c-0.2,0.3-0.3,0.8-0.3,1.4v1.1c0,0.6,0.1,1.1,0.3,1.5c0.2,0.3,0.5,0.5,1,0.5
		c0.4,0,0.7-0.2,0.9-0.5s0.3-0.8,0.3-1.5V19.2z"/>
	<path class="st1" d="M113.9,20.3c0,0.8-0.1,1.4-0.4,1.8s-0.7,0.6-1.3,0.6c-0.6,0-1-0.2-1.3-0.6s-0.5-1-0.5-1.8v-1
		c0-0.8,0.1-1.4,0.4-1.8s0.7-0.6,1.3-0.6c0.6,0,1,0.2,1.3,0.6s0.5,1,0.5,1.8V20.3z M113.4,19.2c0-0.7-0.1-1.1-0.3-1.5
		s-0.5-0.5-1-0.5c-0.4,0-0.7,0.2-1,0.5s-0.3,0.8-0.3,1.4v1.1c0,0.6,0.1,1.1,0.3,1.5s0.5,0.5,1,0.5c0.4,0,0.7-0.2,0.9-0.5
		s0.3-0.8,0.3-1.5V19.2z"/>
	<path class="st1" d="M118.3,20.3c0,0.8-0.1,1.4-0.4,1.8s-0.7,0.6-1.3,0.6c-0.6,0-1-0.2-1.3-0.6s-0.5-1-0.5-1.8v-1
		c0-0.8,0.1-1.4,0.4-1.8s0.7-0.6,1.3-0.6c0.6,0,1,0.2,1.3,0.6s0.5,1,0.5,1.8V20.3z M117.8,19.2c0-0.7-0.1-1.1-0.3-1.5
		s-0.5-0.5-1-0.5c-0.4,0-0.7,0.2-1,0.5s-0.3,0.8-0.3,1.4v1.1c0,0.6,0.1,1.1,0.3,1.5s0.5,0.5,1,0.5c0.4,0,0.7-0.2,0.9-0.5
		s0.3-0.8,0.3-1.5V19.2z"/>
	<path class="st1" d="M122.3,20.5l-0.5,0.5v1.6h-0.5v-6h0.5v3.8l0.4-0.5l1.6-1.6h0.6l-1.8,1.8l1.9,2.4H124L122.3,20.5z"/>
	<path class="st1" d="M125.7,18.4l0,0.7c0.2-0.3,0.4-0.4,0.6-0.6s0.5-0.2,0.8-0.2c0.7,0,1.1,0.3,1.3,0.8c0.2-0.3,0.4-0.5,0.6-0.6
		s0.5-0.2,0.8-0.2c0.9,0,1.4,0.5,1.4,1.5v2.8h-0.5v-2.8c0-0.4-0.1-0.7-0.2-0.8s-0.4-0.3-0.8-0.3c-0.3,0-0.6,0.1-0.9,0.3
		s-0.4,0.5-0.4,0.8v2.8h-0.5v-2.8c0-0.4-0.1-0.6-0.3-0.8s-0.4-0.3-0.8-0.3c-0.3,0-0.5,0.1-0.8,0.3s-0.4,0.4-0.5,0.7v2.9h-0.5v-4.2
		H125.7z"/>
	<path class="st1" d="M134.3,20h-2.2v-0.3l1.2-1.2c0.3-0.3,0.4-0.5,0.4-0.7c0-0.2-0.1-0.3-0.2-0.4s-0.3-0.2-0.5-0.2
		c-0.2,0-0.4,0.1-0.5,0.2s-0.2,0.3-0.2,0.5H132c0-0.3,0.1-0.5,0.3-0.7s0.5-0.3,0.8-0.3s0.6,0.1,0.8,0.2s0.3,0.4,0.3,0.6
		c0,0.3-0.2,0.6-0.5,0.9l-0.2,0.2l-0.9,0.8h1.7V20z"/>
</g>
<g class="st0">
	<path class="st1" d="M97.1-7.1h-3.6v-0.4l1.9-2.2c0.3-0.4,0.5-0.7,0.7-0.9s0.2-0.5,0.2-0.7c0-0.4-0.1-0.6-0.3-0.9s-0.5-0.3-0.9-0.3
		c-0.4,0-0.7,0.1-0.9,0.4c-0.2,0.2-0.4,0.6-0.4,1h-0.5c0-0.3,0.1-0.6,0.2-0.9s0.4-0.5,0.6-0.6c0.3-0.1,0.6-0.2,0.9-0.2
		c0.5,0,0.9,0.1,1.2,0.4s0.4,0.6,0.4,1.1c0,0.3-0.1,0.6-0.2,0.9c-0.2,0.3-0.5,0.7-0.9,1.2l-1.6,1.8h3V-7.1z"/>
	<path class="st1" d="M101.4-9.4c0,0.8-0.1,1.4-0.4,1.8c-0.3,0.4-0.7,0.6-1.3,0.6c-0.6,0-1-0.2-1.3-0.6c-0.3-0.4-0.5-1-0.5-1.8v-1
		c0-0.8,0.1-1.4,0.4-1.8s0.7-0.6,1.3-0.6c0.6,0,1,0.2,1.3,0.6s0.5,1,0.5,1.8V-9.4z M101-10.4c0-0.7-0.1-1.1-0.3-1.5
		c-0.2-0.3-0.5-0.5-1-0.5c-0.4,0-0.7,0.2-1,0.5c-0.2,0.3-0.3,0.8-0.3,1.4v1.1c0,0.6,0.1,1.1,0.3,1.5c0.2,0.3,0.5,0.5,1,0.5
		c0.4,0,0.7-0.2,0.9-0.5s0.3-0.8,0.3-1.5V-10.4z"/>
	<path class="st1" d="M102.5-7.3c0-0.1,0-0.2,0.1-0.2s0.1-0.1,0.2-0.1c0.1,0,0.2,0,0.2,0.1c0.1,0.1,0.1,0.1,0.1,0.2s0,0.2-0.1,0.2
		C103-7.1,102.9-7,102.8-7c-0.1,0-0.2,0-0.2-0.1S102.5-7.2,102.5-7.3z"/>
	<path class="st1" d="M107.8-9.4c0,0.8-0.1,1.4-0.4,1.8S106.6-7,106-7c-0.6,0-1-0.2-1.3-0.6s-0.5-1-0.5-1.8v-1
		c0-0.8,0.1-1.4,0.4-1.8s0.7-0.6,1.3-0.6c0.6,0,1,0.2,1.3,0.6s0.5,1,0.5,1.8V-9.4z M107.3-10.4c0-0.7-0.1-1.1-0.3-1.5
		s-0.5-0.5-1-0.5c-0.4,0-0.7,0.2-1,0.5s-0.3,0.8-0.3,1.4v1.1c0,0.6,0.1,1.1,0.3,1.5s0.5,0.5,1,0.5c0.4,0,0.7-0.2,0.9-0.5
		s0.3-0.8,0.3-1.5V-10.4z"/>
	<path class="st1" d="M112.2-9.4c0,0.8-0.1,1.4-0.4,1.8S111-7,110.5-7c-0.6,0-1-0.2-1.3-0.6s-0.5-1-0.5-1.8v-1
		c0-0.8,0.1-1.4,0.4-1.8s0.7-0.6,1.3-0.6c0.6,0,1,0.2,1.3,0.6s0.5,1,0.5,1.8V-9.4z M111.7-10.4c0-0.7-0.1-1.1-0.3-1.5
		s-0.5-0.5-1-0.5c-0.4,0-0.7,0.2-1,0.5s-0.3,0.8-0.3,1.4v1.1c0,0.6,0.1,1.1,0.3,1.5s0.5,0.5,1,0.5c0.4,0,0.7-0.2,0.9-0.5
		s0.3-0.8,0.3-1.5V-10.4z"/>
	<path class="st1" d="M116.7-9.4c0,0.8-0.1,1.4-0.4,1.8S115.5-7,114.9-7c-0.6,0-1-0.2-1.3-0.6s-0.5-1-0.5-1.8v-1
		c0-0.8,0.1-1.4,0.4-1.8s0.7-0.6,1.3-0.6c0.6,0,1,0.2,1.3,0.6s0.5,1,0.5,1.8V-9.4z M116.2-10.4c0-0.7-0.1-1.1-0.3-1.5
		s-0.5-0.5-1-0.5c-0.4,0-0.7,0.2-1,0.5s-0.3,0.8-0.3,1.4v1.1c0,0.6,0.1,1.1,0.3,1.5s0.5,0.5,1,0.5c0.4,0,0.7-0.2,0.9-0.5
		s0.3-0.8,0.3-1.5V-10.4z"/>
	<path class="st1" d="M120.7-9.2l-0.5,0.5v1.6h-0.5v-6h0.5v3.8l0.4-0.5l1.6-1.6h0.6L121-9.5l1.9,2.4h-0.6L120.7-9.2z"/>
	<path class="st1" d="M124-11.3l0,0.7c0.2-0.3,0.4-0.4,0.6-0.6s0.5-0.2,0.8-0.2c0.7,0,1.1,0.3,1.3,0.8c0.2-0.3,0.4-0.5,0.6-0.6
		s0.5-0.2,0.8-0.2c0.9,0,1.4,0.5,1.4,1.5v2.8H129v-2.8c0-0.4-0.1-0.7-0.2-0.8S128.4-11,128-11c-0.3,0-0.6,0.1-0.9,0.3
		s-0.4,0.5-0.4,0.8v2.8h-0.5v-2.8c0-0.4-0.1-0.6-0.3-0.8s-0.4-0.3-0.8-0.3c-0.3,0-0.5,0.1-0.8,0.3s-0.4,0.4-0.5,0.7v2.9h-0.5v-4.2
		H124z"/>
	<path class="st1" d="M132.7-9.7h-2.2v-0.3l1.2-1.2c0.3-0.3,0.4-0.5,0.4-0.7c0-0.2-0.1-0.3-0.2-0.4s-0.3-0.2-0.5-0.2
		c-0.2,0-0.4,0.1-0.5,0.2s-0.2,0.3-0.2,0.5h-0.4c0-0.3,0.1-0.5,0.3-0.7s0.5-0.3,0.8-0.3s0.6,0.1,0.8,0.2s0.3,0.4,0.3,0.6
		c0,0.3-0.2,0.6-0.5,0.9l-0.2,0.2L131-10h1.7V-9.7z"/>
</g>
<ellipse class="st2" cx="58" cy="29" rx="3.7" ry="3.8"/>
<ellipse class="st2" cx="58" cy="25.3" rx="7.4" ry="7.6"/>
<ellipse class="st2" cx="58" cy="21.5" rx="11.1" ry="11.4"/>
<ellipse class="st2" cx="58" cy="17.7" rx="14.8" ry="15.2"/>
<ellipse class="st2" cx="58" cy="13.6" rx="18.9" ry="19.3"/>
<line class="st3" x1="76.9" y1="-3.7" x2="133" y2="-3.7"/>
<line class="st3" x1="79.9" y1="26.7" x2="136.1" y2="26.7"/>
</svg>
